<svg width="18" height="16" viewBox="0 0 18 16" fill="none" xmlns="http://www.w3.org/2000/svg">
<path fill-rule="evenodd" clip-rule="evenodd" d="M17.3189 5.8322L11.9911 5.05813L9.60936 0.230426C9.54155 0.115117 9.41778 0.0443115 9.28401 0.0443115C9.15025 0.0443115 9.02648 0.115117 8.95867 0.230426L6.57585 5.05704L1.24662 5.8322C1.10991 5.85193 0.996261 5.94756 0.953439 6.07887C0.910617 6.21018 0.94605 6.35442 1.04484 6.45095L4.90105 10.2092L3.99089 15.5155C3.96766 15.6516 4.02361 15.789 4.13524 15.8702C4.24687 15.9513 4.39487 15.9621 4.5171 15.898L9.28274 13.3929L14.0484 15.897C14.1706 15.961 14.3186 15.9502 14.4303 15.8691C14.5419 15.7879 14.5978 15.6505 14.5746 15.5145L13.6644 10.2092L17.5206 6.45095C17.6194 6.35447 17.6549 6.2103 17.6122 6.07901C17.5694 5.94771 17.4559 5.85205 17.3192 5.8322H17.3189Z" fill="#F5A623"/>
</svg>
